<?xml version="1.0" encoding="UTF-8" standalone="no"?>
<!-- Generator: Adobe Illustrator 16.0.0, SVG Export Plug-In . SVG Version: 6.00 Build 0)  -->
<svg id="Layer_1" xmlns:rdf="http://www.w3.org/1999/02/22-rdf-syntax-ns#" xmlns="http://www.w3.org/2000/svg" enable-background="new 0 0 350 57.422" xml:space="preserve" viewBox="0 0 350 150" version="1.1" y="0px" x="0px" xmlns:cc="http://creativecommons.org/ns#" xmlns:dc="http://purl.org/dc/elements/1.1/"><metadata id="metadata43"><rdf:RDF><cc:Work rdf:about=""><dc:format>image/svg+xml</dc:format><dc:type rdf:resource="http://purl.org/dc/dcmitype/StillImage"/><dc:title/></cc:Work></rdf:RDF></metadata><g id="g4216" transform="matrix(1.0185 0 0 1.0185 -4.0005 46.123)"><g fill="#656565"><path id="path9" d="m139.97 14.925h4.726v18.767h0.118l7.168-7.931h6.065l-8.192 8.52 8.704 10.325h-6.262l-7.483-9.658h-0.118v9.658h-4.726v-29.681z"/><path id="path11" d="m178.56 36.676h-14.375c0.197 2.67 2.639 4.633 5.396 4.633 2.363 0 3.938-0.942 5.001-2.435l3.15 2.513c-1.851 2.513-4.529 3.77-8.113 3.77-5.829 0-10.161-3.729-10.161-9.854 0-6.085 4.292-10.09 10.003-10.09 5.277 0 9.136 3.416 9.136 10.208 0.002 0.431 0.002 0.823-0.037 1.255zm-4.686-3.377c0-2.434-1.378-4.554-4.45-4.554-2.796 0-5.041 1.924-5.238 4.554h9.688z"/><path id="path13" d="m187.7 25.761v2.63h0.118c0.945-1.492 3.072-3.18 6.538-3.18 5.396 0 9.176 4.319 9.176 9.894 0 5.496-3.544 10.051-9.294 10.051-2.639 0-5.041-1.178-6.262-3.063h-0.079v11.936h-4.726v-28.268h4.529zm5.593 3.298c-3.466 0-5.553 3.18-5.553 6.125s2.087 6.047 5.553 6.047c3.662 0 5.435-3.181 5.435-6.125s-1.773-6.047-5.435-6.047z"/><path id="path15" d="m208.18 14.925h4.727v29.681h-4.727v-29.681z"/><path id="path17" d="m236.66 36.676h-14.375c0.196 2.67 2.639 4.633 5.396 4.633 2.362 0 3.938-0.942 5.001-2.435l3.151 2.513c-1.852 2.513-4.529 3.77-8.113 3.77-5.828 0-10.161-3.729-10.161-9.854 0-6.085 4.293-10.09 10.004-10.09 5.277 0 9.137 3.416 9.137 10.208-0.001 0.431-0.001 0.823-0.04 1.255zm-4.686-3.377c0-2.434-1.379-4.554-4.451-4.554-2.796 0-5.041 1.924-5.237 4.554h9.688z"/><path id="path19" d="m241.26 25.761h4.528v3.141h0.079c1.024-2.16 3.032-3.691 5.514-3.691 0.354 0 0.827 0.04 1.142 0.118v4.318c-0.63-0.157-1.023-0.196-1.457-0.196-4.253 0-5.08 3.691-5.08 5.065v10.09h-4.726v-18.845z"/><path id="path23" d="m265.82 34.297h0.118l8.507-8.494h3.86l-9.295 8.614 10.239 10.225h-3.938l-9.374-9.902h-0.118v9.902h-2.678v-30.432h2.678v20.087z"/><path id="path25" d="m283.62 20.49c-0.945 0-1.891-0.805-1.891-1.933 0-1.127 0.945-1.932 1.891-1.932s1.891 0.805 1.891 1.932c0 1.128-0.946 1.933-1.891 1.933zm1.339 24.152h-2.678v-18.839h2.678v18.839z"/><path id="path27" d="m292.17 48.426c1.457 1.932 4.253 3.461 7.049 3.461 5.277 0 7.208-3.341 7.208-7.406v-3.542h-0.079c-1.418 2.335-4.293 3.703-6.971 3.703-5.75 0-9.531-4.065-9.531-9.58 0-5.354 3.781-9.741 9.531-9.741 2.678 0 5.514 1.328 6.971 3.744h0.079v-3.261h2.678v18.676c0 4.105-1.852 9.822-10.004 9.822-3.387 0-6.694-1.449-8.86-3.784l1.929-2.092zm7.482-6.119c4.136 0 7.089-2.979 7.089-7.326 0-3.944-2.953-7.366-7.089-7.366-4.45 0-6.971 3.421-6.971 7.366 0.001 3.945 2.521 7.326 6.971 7.326z"/><path id="path29" d="m326.79 32.485c0-3.261-1.732-4.871-4.923-4.871-2.166 0-4.174 0.886-5.474 2.214l-1.497-1.812c1.497-1.529 4.096-2.697 7.247-2.697 3.978 0 7.167 2.254 7.167 6.843v8.252c0 1.449 0.118 3.18 0.315 4.227h-2.402c-0.157-0.926-0.275-2.053-0.275-3.06h-0.079c-1.693 2.496-3.741 3.543-6.695 3.543-2.796 0-6.38-1.53-6.38-5.716 0-5.797 6.262-6.32 12.996-6.32v-0.603zm-0.787 2.738c-4.372 0-9.452 0.482-9.452 4.065 0 2.697 2.245 3.582 4.332 3.582 3.781 0 5.907-2.897 5.907-6.239v-1.408h-0.787z"/><path id="path31" d="m338.05 44.642h-2.678v-30.432h2.678v30.432z"/><path id="path33" d="m345.69 20.49c-0.945 0-1.891-0.805-1.891-1.933 0-1.127 0.945-1.932 1.891-1.932s1.891 0.805 1.891 1.932c0 1.128-0.945 1.933-1.891 1.933zm1.339 24.152h-2.678v-18.839h2.678v18.839z"/></g><polyline id="polyline35" points="111.38 44.641 46.369 44.641 67.589 23.523 88.811 2.406 131.52 2.406 99.691 34.146 111.38 44.641" fill="#33e57c"/><polyline id="polyline37" points="3.928 2.406 46.729 2.406 67.589 23.523 46.369 44.641" fill="#3d79ea"/></g></svg>
